HIERARCHY
ROOT Hips
{
	OFFSET 0.00000 0.00000 0.00000
	CHANNELS 6 Xposition Yposition Zposition Zrotation Yrotation Xrotation 
	JOINT RightUpLegDummy
	{
		OFFSET 0 0 0
		CHANNELS 3 Zrotation Yrotation Xrotation
		JOINT RightUpLeg
		{
			OFFSET -3.52197 -3.41223 0.04002
			CHANNELS 3 Zrotation Yrotation Xrotation
			JOINT RightLeg
			{
				OFFSET -1.06336 -17.58347 1.60435
				CHANNELS 3 Zrotation Yrotation Xrotation
				JOINT RightFoot
				{
					OFFSET -0.27018 -17.05419 -1.63900
					CHANNELS 3 Zrotation Yrotation Xrotation
					JOINT RightToes
					{
						OFFSET 0.00298 -1.73825 3.34613
						CHANNELS 3 Zrotation Yrotation Xrotation
						End Site
						{
							OFFSET 0.00480 -0.05416 3.85043
						}
					}
				}
			}
		}
	}
	JOINT SpineDummy
	{
		OFFSET 0 0 0
		CHANNELS 3 Zrotation Yrotation Xrotation
		JOINT Spine
		{
			OFFSET 0.00000 4.14613 0.00000
			CHANNELS 3 Zrotation Yrotation Xrotation
			JOINT Spine1
			{
				OFFSET 0.00000 10.93369 0.05002
				CHANNELS 3 Zrotation Yrotation Xrotation
				JOINT HEadDummy
				{
					OFFSET 0 0 0
					CHANNELS 3 Zrotation Yrotation Xrotation
					JOINT Head
					{
						OFFSET 0.00000 5.52901 0.00438
						CHANNELS 3 Zrotation Yrotation Xrotation
						End Site
						{
							OFFSET -0.11417 7.29012 0.98962
						}
					}
				}
				JOINT LeftShoulder1Dummy
				{
					OFFSET 0 0 0
					CHANNELS 3 Zrotation Yrotation Xrotation
					JOINT LeftShoulder1
					{
						OFFSET 3.53937 -0.14262 -0.08662
						CHANNELS 3 Zrotation Yrotation Xrotation
						JOINT LeftArm
						{
							OFFSET 4.04833 -0.00133 0.12681
							CHANNELS 3 Zrotation Yrotation Xrotation
							JOINT LeftForeArm
							{
								OFFSET 9.67557 0.03289 -0.56117
								CHANNELS 3 Zrotation Yrotation Xrotation
								JOINT LeftHand
								{
									OFFSET 10.17679 0.06873 0.40307
									CHANNELS 3 Zrotation Yrotation Xrotation
									End Site
									{
										OFFSET 6.59293 -0.21483 0.59213
									}
								}
							}
						}
					}
				}
				JOINT RightShoulderDummy
				{
					OFFSET 0 0 0
					CHANNELS 3 Zrotation Yrotation Xrotation
					JOINT RightShoulder
					{
						OFFSET -3.53937 -0.14262 -0.08660
						CHANNELS 3 Zrotation Yrotation Xrotation
						JOINT RightArm
						{
							OFFSET -4.04833 -0.00132 0.12683
							CHANNELS 3 Zrotation Yrotation Xrotation
							JOINT RightForeArm
							{
								OFFSET -9.67570 0.03289 -0.56114
								CHANNELS 3 Zrotation Yrotation Xrotation
								JOINT RightHand
								{
									OFFSET -10.17679 0.06867 0.40304
									CHANNELS 3 Zrotation Yrotation Xrotation
									End Site
									{
										OFFSET -6.54841 -0.21495 0.59212
									}
								}
							}
						}
					}
				}
			}
		}
	}
	JOINT LeftUpLegDummy
	{
		OFFSET 0 0 0
		CHANNELS 3 Zrotation Yrotation Xrotation
		JOINT LeftUpLeg
		{
			OFFSET 3.52197 -3.41223 0.04002
			CHANNELS 3 Zrotation Yrotation Xrotation
			JOINT LeftLeg
			{
				OFFSET 1.08359 -17.35354 1.60336
				CHANNELS 3 Zrotation Yrotation Xrotation
				JOINT LeftFoot
				{
					OFFSET 0.24986 -17.28405 -1.63802
					CHANNELS 3 Zrotation Yrotation Xrotation
					JOINT LeftToes
					{
						OFFSET -0.01575 -1.73822 3.34610
						CHANNELS 3 Zrotation Yrotation Xrotation
						End Site
						{
							OFFSET 0.03150 -0.01868 3.85031
						}
					}
				}
			}
		}
	}
}
MOTION
Frames: 6
Frame Time: 0.033333
-0.0659 38.4464 -26.8077 -176.2160 -40.0498 172.8370 0.0000 0.0000 0.0000 1.7194 1.0105 2.5491 -6.2540 -5.8661 28.8257 -1.2852 0.2349 -24.6918 -0.0000 -0.0000 0.0000 0.0000 0.0000 0.0000 15.5087 3.6996 0.0770 -8.0346 6.9643 19.3740 0.0000 0.0000 0.0000 -2.7908 14.7296 -9.5725 0.0000 0.0000 0.0000 -18.3434 -3.9877 2.2055 0.5709 -38.9674 -48.9544 -179.8978 -75.8117 -170.2638 4.3281 0.0677 -0.1693 0.0000 0.0000 0.0000 6.2406 3.2303 1.0822 41.8530 72.3761 0.6749 -33.2320 89.5779 -18.2600 -16.6007 8.4166 -1.8281 0.0000 0.0000 0.0000 7.4125 31.9526 -24.2689 -5.6378 -15.9420 8.8276 -24.0731 4.4088 8.8891 0.0000 -0.0000 0.0000
0.0248 38.9118 -26.3733 -177.3440 -38.9953 174.6260 0.0000 0.0000 0.0000 0.5071 2.0178 2.1072 -5.7888 -5.8149 25.4044 -1.3860 0.2137 -22.1001 -0.0000 -0.0000 0.0000 0.0000 0.0000 0.0000 14.3691 4.2646 -0.7584 -7.1060 7.0918 18.1052 0.0000 0.0000 0.0000 -3.6823 15.4570 -6.7783 0.0000 0.0000 0.0000 -17.2397 -3.6445 2.0332 3.9215 -38.5644 -51.0995 -179.8499 -77.2187 -170.6040 4.6094 0.2815 -0.1731 0.0000 0.0000 0.0000 5.8957 2.9873 1.0227 40.7318 74.2993 -0.3450 -9.6944 88.4234 6.0077 -15.8057 8.3553 -1.7284 0.0000 0.0000 0.0000 5.7958 35.3005 -25.7405 -5.3003 -19.2181 15.0334 -14.2284 2.3495 7.1004 0.0000 -0.0000 0.0000
-0.0043 39.2628 -25.9195 -177.9080 -36.8611 176.4130 0.0000 0.0000 0.0000 -0.6315 3.0517 0.9792 -4.8106 -4.6411 22.4099 -1.7276 0.1783 -19.8377 -0.0000 -0.0000 0.0000 0.0000 0.0000 0.0000 14.5741 5.0754 -1.8548 -7.4325 7.8632 16.9559 0.0000 0.0000 0.0000 -4.2811 16.0984 -4.9564 0.0000 0.0000 0.0000 -15.7128 -3.2616 1.8284 6.5844 -38.1806 -52.8708 -179.4736 -78.8494 -172.8460 5.0371 0.6846 -0.1741 0.0000 0.0000 0.0000 5.6138 2.9682 1.0012 40.9197 75.9768 -0.5426 -6.3527 87.3939 9.8184 -15.1789 8.5715 -1.6844 0.0000 0.0000 0.0000 8.0509 34.9924 -24.4818 -4.5550 -15.8178 18.9722 -7.1628 1.2764 7.7532 0.0000 -0.0000 0.0000
-0.0649 39.5065 -25.4598 -177.8770 -34.7371 177.7910 0.0000 0.0000 0.0000 -1.4551 3.3078 -0.4135 -3.6835 -2.7329 20.0462 -1.8648 0.1684 -17.8637 -0.0000 -0.0000 0.0000 0.0000 0.0000 0.0000 15.0900 5.7195 -2.9976 -8.0740 8.5282 16.2104 0.0000 0.0000 0.0000 -4.4007 16.7924 -4.5043 0.0000 0.0000 0.0000 -14.1756 -2.9320 1.6459 8.5168 -37.7341 -54.3356 -178.7488 -80.1592 -176.5623 5.1036 1.1140 -0.1603 0.0000 0.0000 0.0000 5.3897 3.1299 1.0095 41.8004 77.1803 -0.0970 -5.0212 86.7399 11.0077 -15.1797 8.5951 -1.6873 0.0000 0.0000 0.0000 10.9849 33.8378 -22.1981 -3.8677 -13.2877 20.8664 -1.9533 0.5159 10.5157 0.0000 -0.0000 0.0000
-0.1505 39.6063 -25.0005 -177.3480 -33.5556 178.3760 0.0000 0.0000 0.0000 -1.7996 2.9658 -1.4746 -2.9210 -1.1687 18.5456 -1.7174 0.1767 -16.4309 -0.0000 -0.0000 0.0000 0.0000 0.0000 0.0000 14.9390 5.8306 -4.1075 -7.5652 8.3772 16.2553 0.0000 0.0000 0.0000 -4.3837 17.7984 -5.5160 0.0000 0.0000 0.0000 -13.3891 -2.7164 1.5463 9.8535 -37.0416 -55.4606 -178.2071 -80.4277 -179.1854 4.9253 1.3886 -0.1449 0.0000 0.0000 0.0000 5.3341 3.2137 1.0177 43.4877 77.9260 1.4115 -4.7401 86.7030 10.9718 -15.7571 8.1756 -1.6993 0.0000 0.0000 0.0000 14.0839 31.4701 -19.1051 -3.7422 -12.7466 21.2887 1.7113 -0.1562 12.6958 0.0000 -0.0000 0.0000
-0.2719 39.5753 -24.5181 -176.4780 -33.6638 178.0400 0.0000 0.0000 0.0000 -1.7554 2.3949 -1.9356 -2.6347 -0.4855 17.9765 -1.4073 0.1890 -15.7024 -0.0000 -0.0000 0.0000 0.0000 0.0000 0.0000 14.2216 5.2761 -4.8384 -6.1076 7.3968 17.0290 0.0000 0.0000 0.0000 -4.3885 18.8754 -7.7223 0.0000 0.0000 0.0000 -13.7722 -2.6733 1.5623 10.5444 -36.5643 -56.0375 -178.2747 -79.4828 -179.3675 4.8363 1.5809 -0.1356 0.0000 0.0000 0.0000 5.7568 3.2076 1.0457 45.0487 77.6486 3.3048 -5.7939 87.4771 9.5955 -16.2489 7.7997 -1.7041 0.0000 0.0000 0.0000 16.8838 28.0130 -15.5595 -3.3860 -12.5277 20.3343 0.4811 0.0510 11.1382 0.0000 -0.0000 0.0000
